<?xml version="1.0" encoding="utf-8"?>
<!-- Generator: Adobe Illustrator 27.0.1, SVG Export Plug-In . SVG Version: 6.00 Build 0)  -->
<svg version="1.1" id="Calque_1" xmlns="http://www.w3.org/2000/svg" xmlns:xlink="http://www.w3.org/1999/xlink" x="0px" y="0px"
	 viewBox="0 0 1000 1000" style="enable-background:new 0 0 1000 1000;" xml:space="preserve">
<style type="text/css">
	.st0{fill:none;}
	.st1{font-family:'BasicSans-SemiBold';}
	.st2{font-size:20px;}
	.st3{fill:#1D1D1B;}
	.st4{fill:none;stroke:#0B0BF7;stroke-width:9;stroke-linecap:round;stroke-linejoin:round;stroke-miterlimit:10;}
	.st5{fill:none;stroke:#0B0BF7;stroke-width:2;stroke-linejoin:round;stroke-miterlimit:10;}
	.st6{fill:none;stroke:#0B0BF7;stroke-width:9;stroke-linecap:square;stroke-miterlimit:10;}
	.st7{fill:#FFFFFF;}
	.st8{fill:none;stroke:#000000;stroke-width:9;stroke-linecap:round;stroke-linejoin:round;stroke-miterlimit:10;}
	.st9{fill:none;stroke:#000000;stroke-width:2;stroke-linejoin:round;stroke-miterlimit:10;}
	.st10{fill:none;stroke:#000000;stroke-width:9;stroke-linecap:square;stroke-miterlimit:10;}
	.st11{fill:none;stroke:#1D1D1B;stroke-width:2;stroke-linejoin:round;stroke-miterlimit:10;}
	.st12{fill:none;stroke:#1D1D1B;stroke-width:6;stroke-linejoin:round;stroke-miterlimit:10;}
	.st13{fill:none;stroke:#1D1D1B;stroke-width:6;stroke-linecap:square;stroke-miterlimit:10;}
	.st14{fill:none;stroke:#0B0BF7;stroke-width:6;stroke-linejoin:round;stroke-miterlimit:10;}
	.st15{fill:none;stroke:#0B0BF7;stroke-width:6;stroke-linecap:square;stroke-miterlimit:10;}
	.st16{fill:none;stroke:#1D1D1B;stroke-width:9;stroke-linejoin:round;stroke-miterlimit:10;}
	.st17{fill:none;stroke:#1D1D1B;stroke-width:9;stroke-linecap:square;stroke-miterlimit:10;}
	.st18{fill:none;stroke:#0B0BF7;stroke-width:9;stroke-linejoin:round;stroke-miterlimit:10;}
	.st19{fill:none;stroke:#0B0BF7;stroke-width:9;stroke-miterlimit:10;}
	.st20{font-size:29.1329px;}
	.st21{fill:none;stroke:#1D1D1B;stroke-width:3;stroke-linejoin:round;stroke-miterlimit:10;}
	.st22{font-size:29px;}
	.st23{letter-spacing:1;}
	.st24{fill:none;stroke:#0B0BF7;stroke-width:3;stroke-linejoin:round;stroke-miterlimit:10;}
	.st25{fill:none;stroke:#000000;stroke-width:6;stroke-linejoin:round;stroke-miterlimit:10;}
	.st26{fill:none;stroke:#000000;stroke-width:2;stroke-linecap:round;stroke-linejoin:round;stroke-miterlimit:10;}
	.st27{fill:none;stroke:#000000;stroke-width:6;stroke-linecap:square;stroke-miterlimit:10;}
	.st28{fill:none;stroke:#000000;stroke-width:2;stroke-linecap:square;stroke-miterlimit:10;}
</style>
<rect x="62.9" y="180.3" class="st0" width="208.7" height="33.1"/>
<text transform="matrix(1 0 0 1 101.9139 194.4416)"><tspan x="0" y="0" class="st1 st2">  lexandre    riol</tspan><tspan x="-8.2" y="15" class="st1 st2">Web Developper</tspan></text>
<g>
	<path class="st3" d="M783.2,208.7c33.7,0,65.4,13.1,89.3,37c23.8,23.8,37,55.5,37,89.3s-13.1,65.4-37,89.3
		c-23.8,23.8-55.5,37-89.3,37s-65.4-13.1-89.3-37c-23.8-23.8-37-55.5-37-89.3s13.1-65.4,37-89.3
		C717.7,221.8,749.4,208.7,783.2,208.7 M783.2,202.7c-73,0-132.2,59.2-132.2,132.2s59.2,132.2,132.2,132.2s132.2-59.2,132.2-132.2
		S856.2,202.7,783.2,202.7L783.2,202.7z"/>
</g>
<path class="st4" d="M179.3,171.1L122.6,40.6L62.9,171.1c0,0,38.1-83.2,137.4-87.1"/>
<path class="st5" d="M110,194l-4.9-12.2L100,194c0,0,3.3-7.8,11.8-8.1"/>
<path class="st6" d="M196.1,84.2c0,0,70.3-5.2,75.4,45.7s-74.8,40.2-74.8,40.2V40.7c0,0,36.4-8.6,37.5,19.5S196.1,84.2,196.1,84.2z"
	/>
<path class="st5" d="M196.1,185.9c0,0,6.5-0.5,7,4.2c0.5,4.7-6.9,3.7-6.9,3.7v-12c0,0,3.4-0.8,3.5,1.8
	C199.7,186.3,196.1,185.9,196.1,185.9z"/>
<polyline class="st7" points="191.4,80.1 191.6,78.6 201.8,78.2 201.8,79.6 "/>
<polygon class="st7" points="149.6,89.1 138.8,93.4 138.7,92.3 149,88.1 "/>
<rect x="300" y="177.2" class="st0" width="208.7" height="33.1"/>
<text transform="matrix(1 0 0 1 339.0022 191.3443)"><tspan x="0" y="0" class="st1 st2">  lexandre    riol</tspan><tspan x="-8.2" y="15" class="st1 st2">Web Developper</tspan></text>
<path class="st8" d="M416.4,168L359.7,37.5L300,168c0,0,38.1-83.2,137.4-87.1"/>
<path class="st9" d="M347.1,190.9l-4.9-12.2l-5.1,12.2c0,0,3.3-7.8,11.8-8.1"/>
<path class="st10" d="M433.1,81.1c0,0,70.3-5.2,75.4,45.7c5,50.9-74.8,40.2-74.8,40.2V37.6c0,0,36.4-8.6,37.5,19.5
	C472.3,85.2,433.1,81.1,433.1,81.1z"/>
<path class="st9" d="M433.1,182.8c0,0,6.5-0.5,7,4.2c0.5,4.7-6.9,3.7-6.9,3.7v-12c0,0,3.4-0.8,3.5,1.8
	C436.8,183.2,433.1,182.8,433.1,182.8z"/>
<polyline class="st7" points="428.6,76.9 428.8,75.5 439,75.1 438.8,76.5 "/>
<polygon class="st7" points="386.2,86.2 376.1,90.2 375.7,88.4 385.3,84.5 "/>
<g>
	<rect x="281" y="414" class="st0" width="208.7" height="33.1"/>
	<text transform="matrix(1 0 0 1 319.9427 428.1013)"><tspan x="0" y="0" class="st1 st2">  lexandre    riol</tspan><tspan x="-8.2" y="15" class="st1 st2">Web Developper</tspan></text>
	<path class="st11" d="M328,427.6l-4.9-12.2l-5.1,12.2c0,0,3.3-7.8,11.8-8.1"/>
	<path class="st11" d="M414.1,419.6c0,0,6.5-0.5,7,4.2c0.5,4.7-6.9,3.7-6.9,3.7v-12c0,0,3.4-0.8,3.5,1.8S414.1,419.6,414.1,419.6z"
		/>
</g>
<path class="st12" d="M404.7,399l-57.3-131l-59.7,130.5c0,0,38.1-83.2,137.4-87.1"/>
<path class="st13" d="M404.4,311.6c0,0,70.3-5.2,75.4,45.7c5,50.9-74.8,40.2-74.8,40.2V268.1c0,0,36.4-8.6,37.5,19.5
	C443.6,315.6,404.4,311.6,404.4,311.6z"/>
<polygon class="st7" points="373.1,318.6 366.8,321.1 366.5,320 372.5,317.5 "/>
<polygon class="st7" points="415.7,308.1 401.7,310.8 401.9,309.6 415.3,307 "/>
<polygon class="st7" points="415.3,308.5 410.8,309.1 411.2,307.6 415.1,307.4 "/>
<g>
	<rect x="43.9" y="412.5" class="st0" width="208.7" height="33.1"/>
	<text transform="matrix(1 0 0 1 82.8544 426.5939)"><tspan x="0" y="0" class="st1 st2">  lexandre    riol</tspan><tspan x="-8.2" y="15" class="st1 st2">Web Developper</tspan></text>
	<path class="st5" d="M91,426.1l-4.9-12.2l-5.1,12.2c0,0,3.3-7.8,11.8-8.1"/>
	<path class="st5" d="M177,418.1c0,0,6.5-0.5,7,4.2c0.5,4.7-6.9,3.7-6.9,3.7v-12c0,0,3.4-0.8,3.5,1.8
		C180.6,418.5,177,418.1,177,418.1z"/>
</g>
<g>
	<path class="st14" d="M167.6,397.5l-57.3-131L50.7,397c0,0,38.1-83.2,137.4-87.1"/>
	<path class="st15" d="M167.3,310.1c0,0,70.3-5.2,75.4,45.7c5,50.9-74.8,40.2-74.8,40.2V266.6c0,0,36.4-8.6,37.5,19.5
		S167.3,310.1,167.3,310.1z"/>
	<polygon class="st7" points="136,317.1 129.7,319.6 129.5,318.4 135.4,316 	"/>
	<polygon class="st7" points="178.7,306.6 164.6,309.3 164.8,308.1 178.2,305.5 	"/>
	<polygon class="st7" points="178.2,307 173.7,307.6 174.1,306.1 178,305.8 	"/>
</g>
<g>
	<rect x="285.8" y="640.3" class="st0" width="208.7" height="33.1"/>
	<text transform="matrix(1 0 0 1 324.8168 654.4238)"><tspan x="0" y="0" class="st1 st2">  lexandre    riol</tspan><tspan x="-8.2" y="15" class="st1 st2">Web Developper</tspan></text>
	<path class="st11" d="M332.9,654l-4.9-12.2l-5.1,12.2c0,0,3.3-7.8,11.8-8.1"/>
	<path class="st11" d="M419,645.9c0,0,6.5-0.5,7,4.2c0.5,4.7-6.9,3.7-6.9,3.7v-12c0,0,3.4-0.8,3.5,1.8S419,645.9,419,645.9z"/>
</g>
<path class="st16" d="M409.6,625.3l-57.3-131l-59.7,130.5c0,0,38.1-83.2,137.4-87.1"/>
<path class="st17" d="M409.3,537.9c0,0,70.3-5.2,75.4,45.7c5,50.9-74.8,40.2-74.8,40.2V494.4c0,0,36.4-8.6,37.5,19.5
	C448.4,542,409.3,537.9,409.3,537.9z"/>
<polygon class="st7" points="378.7,543 369.2,546.8 368.9,545.1 377.9,541.4 "/>
<polygon class="st7" points="418.6,533.3 404.6,536 404.8,534.8 418.2,532.1 "/>
<polygon class="st7" points="420,533.4 414.5,534.1 415,532.6 419.8,532.3 "/>
<g>
	<rect x="43.9" y="640.3" class="st0" width="208.7" height="33.1"/>
	<text transform="matrix(1 0 0 1 83.8842 654.4238)"><tspan x="0" y="0" class="st1 st2">  lexandre</tspan><tspan x="85.5" y="0" class="st1 st2">   </tspan><tspan x="100.3" y="0" class="st1 st2">riol</tspan><tspan x="-9.3" y="15" class="st1 st2">Web Developper</tspan></text>
	<path class="st5" d="M91.5,654l-4.9-12.2L81.5,654c0,0,3.3-7.8,11.8-8.1"/>
	<path class="st5" d="M175.7,645.8c0,0,6.5-0.5,7,4.2c0.5,4.7-6.9,3.7-6.9,3.7v-12c0,0,3.4-0.8,3.5,1.8S175.7,645.8,175.7,645.8z"/>
</g>
<path class="st18" d="M167.5,626l-57.2-131.7L50.7,624.8c0,0,38.1-83.2,137.4-87.1"/>
<path class="st19" d="M167.3,537.9c0,0,70.3-5.2,75.4,45.7c5,50.9-74.8,40.2-74.8,40.2V494.4c0,0,36.4-8.6,37.5,19.5
	C206.5,542,167.3,537.9,167.3,537.9z"/>
<polygon class="st7" points="136.8,543 127.3,546.8 126.9,545.1 136,541.4 "/>
<polygon class="st7" points="176.7,533.3 162.7,536 162.8,534.8 176.2,532.1 "/>
<polygon class="st7" points="178,533.4 172.6,534.1 173.1,532.6 177.8,532.3 "/>
<g>
	<path class="st18" d="M55.5,623.3"/>
	<path class="st18" d="M115.2,492.8"/>
	<path class="st6" d="M172.7,492.9"/>
	<path class="st6" d="M247.5,582.1"/>
</g>
<g>
	<rect x="221.6" y="862.8" class="st0" width="304" height="48.2"/>
	<text transform="matrix(1 0 0 1 278.3398 883.3438)"><tspan x="0" y="0" class="st1 st20">  lexandre    riol</tspan><tspan x="-12" y="21.8" class="st1 st20">Web Developper</tspan></text>
	<path class="st21" d="M290.1,882.7l-7.1-17.8l-7.5,17.8c0,0,4.8-11.3,17.2-11.9"/>
	<path class="st21" d="M415.5,870.9c0,0,9.5-0.7,10.2,6.2s-10.1,5.4-10.1,5.4v-17.5c0,0,4.9-1.2,5.1,2.6
		C420.8,871.5,415.5,870.9,415.5,870.9z"/>
</g>
<path class="st16" d="M393,855.3l-57.3-131L276,854.8c0,0,38.1-83.2,137.4-87.1"/>
<path class="st17" d="M392.6,767.9c0,0,70.3-5.2,75.4,45.7s-74.8,40.2-74.8,40.2V724.4c0,0,36.4-8.6,37.5,19.5
	C431.8,772,392.6,767.9,392.6,767.9z"/>
<polygon class="st7" points="362.1,773 352.6,776.8 352.2,775.1 361.3,771.4 "/>
<g>
	<rect x="-20.1" y="862.8" class="st0" width="303.5" height="48.2"/>
	<text transform="matrix(1 0 0 1 38.3062 883.2949)"><tspan x="0" y="0" class="st1 st22">  lexandre</tspan><tspan x="124" y="0" class="st1 st22 st23">   </tspan><tspan x="145.5" y="0" class="st1 st22">riol</tspan><tspan x="-13.4" y="21.8" class="st1 st22">Web Developper</tspan></text>
	<path class="st24" d="M49.1,882.7L42,864.9l-7.5,17.7c0,0,4.8-11.3,17.2-11.8"/>
	<path class="st24" d="M171.5,870.8c0,0,9.5-0.7,10.2,6.2c0.7,6.9-10.1,5.4-10.1,5.4v-17.5c0,0,4.9-1.2,5.1,2.6
		C176.8,871.3,171.5,870.8,171.5,870.8z"/>
</g>
<path class="st18" d="M150.9,856L93.7,724.3L34,854.8c0,0,38.1-83.2,137.4-87.1"/>
<path class="st19" d="M150.7,767.9c0,0,70.3-5.2,75.4,45.7c5,50.9-74.8,40.2-74.8,40.2V724.4c0,0,36.4-8.6,37.5,19.5
	C189.9,772,150.7,767.9,150.7,767.9z"/>
<polygon class="st7" points="120.1,773 110.6,776.8 110.3,775.1 119.3,771.4 "/>
<g>
	<path class="st18" d="M38.9,853.3"/>
	<path class="st18" d="M98.6,722.8"/>
	<path class="st6" d="M156.1,722.9"/>
	<path class="st6" d="M230.9,812.2"/>
</g>
<path class="st25" d="M799.2,406.2l-56.7-130.5l-59.7,130.5c0,0,38.1-83.2,137.4-87.1"/>
<path class="st26" d="M727.8,207.9l-9.8-8.8l0.8,13.2c0,0-0.5-8.4,7-12.5"/>
<path class="st27" d="M815.9,319.3c0,0,70.3-5.2,75.4,45.7c5,50.9-74.8,40.2-74.8,40.2V275.8c0,0,36.4-8.6,37.5,19.5
	C855.1,323.4,815.9,319.3,815.9,319.3z"/>
<polyline class="st7" points="810.6,316.7 810.8,315.3 821,314.8 820.9,316.2 "/>
<polygon class="st7" points="768.1,326.3 761.8,328.8 761.6,327.7 767.6,325.2 "/>
<path id="SVGID_x5F_1_x5F_" class="st0" d="M927.5,341.8c0-79.7-64.6-144.4-144.4-144.4S638.8,262,638.8,341.8
	s64.6,144.4,144.4,144.4S927.5,421.5,927.5,341.8z"/>
<text><textPath  xlink:href="#SVGID_x5F_1_x5F_" startOffset="33.3333%">
<tspan  class="st1" style="font-size:21.4616px;">Web Developper </tspan></textPath>
</text>
<path id="SVGID_x5F_00000141454691772569444720000008289185761032119475_x5F_" class="st0" d="M917.7,341.8
	c0-74.3-60.2-134.5-134.5-134.5s-134.5,60.2-134.5,134.5s60.2,134.5,134.5,134.5S917.7,416.1,917.7,341.8z"/>
<text><textPath  xlink:href="#SVGID_x5F_00000141454691772569444720000008289185761032119475_x5F_" startOffset="100%">
</textPath>
</text>
<path d="M193280.1,96428.4c0,53211.1-43136.1,96347.2-96347.2,96347.2S585.6,149639.5,585.6,96428.4S43721.7,81.2,96932.8,81.2
	S193280.1,43217.3,193280.1,96428.4z"/>
<path id="SVGID_x5F_00000101806228957293327130000000827333307762046138_x5F_" class="st0" d="M927.5,341.8
	c0,79.7-64.6,144.4-144.4,144.4s-144.4-64.6-144.4-144.4s64.6-144.4,144.4-144.4S927.5,262,927.5,341.8z"/>
<text><textPath  xlink:href="#SVGID_x5F_00000101806228957293327130000000827333307762046138_x5F_" startOffset="33.5042%">
<tspan  class="st1" style="font-size:21.4616px;">  lexandre   riol</tspan></textPath>
</text>
<path class="st28" d="M815.2,192.3c0,0,6.4,1.1,5.8,5.8c-0.7,4.7-7.6,2-7.6,2l2.9-11.7c0,0,3.5,0,2.9,2.6
	C818.6,193.5,815.2,192.3,815.2,192.3z"/>
</svg>
